{"asset":{"version":"2.0","generator":"THREE.GLTFExporter r178"},"scenes":[{"nodes":[0]}],"scene":0,"nodes":[{"mesh":0}],"bufferViews":[{"buffer":0,"byteOffset":0,"byteLength":204516,"target":34962,"byteStride":12},{"buffer":0,"byteOffset":204516,"byteLength":34088,"target":34963}],"buffers":[{"byteLength":238604,"uri":"data:application/octet-stream;base64,"}],"accessors":[{"bufferView":0,"componentType":5126,"count":17043,"max":[111.9000015258789,6.018746376037598,29.741870880126953],"min":[-87.70000457763672,0.01874595880508423,-39.65812683105469],"type":"VEC3"},{"bufferView":1,"componentType":5123,"count":17043,"max":[17042],"min":[0],"type":"SCALAR"}],"materials":[{"pbrMetallicRoughness":{"metallicFactor":0,"roughnessFactor":1}}],"meshes":[{"primitives":[{"mode":4,"attributes":{"POSITION":0},"indices":1,"material":0}]}]}