{"asset":{"version":"2.0","generator":"THREE.GLTFExporter r178"},"scenes":[{"nodes":[0]}],"scene":0,"nodes":[{"mesh":0}],"bufferViews":[{"buffer":0,"byteOffset":0,"byteLength":42552,"target":34962,"byteStride":12},{"buffer":0,"byteOffset":42552,"byteLength":7092,"target":34963}],"buffers":[{"byteLength":49644,"uri":"data:application/octet-stream;base64,"}],"accessors":[{"bufferView":0,"componentType":5126,"count":3546,"max":[111.30001068115234,5.918745994567871,29.14187240600586],"min":[-87.30000305175781,0.11874595284461975,-39.25812911987305],"type":"VEC3"},{"bufferView":1,"componentType":5123,"count":3546,"max":[3545],"min":[0],"type":"SCALAR"}],"materials":[{"pbrMetallicRoughness":{"metallicFactor":0,"roughnessFactor":1}}],"meshes":[{"primitives":[{"mode":4,"attributes":{"POSITION":0},"indices":1,"material":0}]}]}