{"asset":{"version":"2.0","generator":"THREE.GLTFExporter r178"},"scenes":[{"nodes":[0]}],"scene":0,"nodes":[{"mesh":0}],"bufferViews":[{"buffer":0,"byteOffset":0,"byteLength":81432,"target":34962,"byteStride":12},{"buffer":0,"byteOffset":81432,"byteLength":13572,"target":34963}],"buffers":[{"byteLength":95004,"uri":"data:application/octet-stream;base64,"}],"accessors":[{"bufferView":0,"componentType":5126,"count":6786,"max":[111.9000015258789,5.918745994567871,29.441875457763672],"min":[-87.5999984741211,0.11874595284461975,-39.558128356933594],"type":"VEC3"},{"bufferView":1,"componentType":5123,"count":6786,"max":[6785],"min":[0],"type":"SCALAR"}],"materials":[{"pbrMetallicRoughness":{"metallicFactor":0,"roughnessFactor":1}}],"meshes":[{"primitives":[{"mode":4,"attributes":{"POSITION":0},"indices":1,"material":0}]}]}