{"asset":{"version":"2.0","generator":"THREE.GLTFExporter r178"},"scenes":[{"nodes":[0]}],"scene":0,"nodes":[{"mesh":0}],"bufferViews":[{"buffer":0,"byteOffset":0,"byteLength":1180080,"target":34962,"byteStride":12},{"buffer":0,"byteOffset":1180080,"byteLength":196680,"target":34963}],"buffers":[{"byteLength":1376760,"uri":"data:application/octet-stream;base64,"}],"accessors":[{"bufferView":0,"componentType":5126,"count":98340,"max":[112.00000762939453,5.918745994567871,29.741870880126953],"min":[-87.80000305175781,0.01874595880508423,-39.75812911987305],"type":"VEC3"},{"bufferView":1,"componentType":5123,"count":98340,"max":[65535],"min":[0],"type":"SCALAR"}],"materials":[{"pbrMetallicRoughness":{"metallicFactor":0,"roughnessFactor":1}}],"meshes":[{"primitives":[{"mode":4,"attributes":{"POSITION":0},"indices":1,"material":0}]}]}