{"asset":{"version":"2.0","generator":"THREE.GLTFExporter r178"},"scenes":[{"nodes":[0]}],"scene":0,"nodes":[{"mesh":0}],"bufferViews":[{"buffer":0,"byteOffset":0,"byteLength":50004,"target":34962,"byteStride":12},{"buffer":0,"byteOffset":50004,"byteLength":8336,"target":34963}],"buffers":[{"byteLength":58340,"uri":"data:application/octet-stream;base64,"}],"accessors":[{"bufferView":0,"componentType":5126,"count":4167,"max":[111.0999984741211,6.118745803833008,28.64187240600586],"min":[-86.9000015258789,0.11874595284461975,-38.85812759399414],"type":"VEC3"},{"bufferView":1,"componentType":5123,"count":4167,"max":[4166],"min":[0],"type":"SCALAR"}],"materials":[{"pbrMetallicRoughness":{"metallicFactor":0,"roughnessFactor":1}}],"meshes":[{"primitives":[{"mode":4,"attributes":{"POSITION":0},"indices":1,"material":0}]}]}