{"asset":{"version":"2.0","generator":"THREE.GLTFExporter r178"},"scenes":[{"nodes":[0]}],"scene":0,"nodes":[{"mesh":0}],"bufferViews":[{"buffer":0,"byteOffset":0,"byteLength":11412,"target":34962,"byteStride":12},{"buffer":0,"byteOffset":11412,"byteLength":1904,"target":34963}],"buffers":[{"byteLength":13316,"uri":"data:application/octet-stream;base64,"}],"accessors":[{"bufferView":0,"componentType":5126,"count":951,"max":[110.0999984741211,2.118746042251587,28.14187240600586],"min":[-85.9000015258789,0.3187459707260132,-37.85812759399414],"type":"VEC3"},{"bufferView":1,"componentType":5123,"count":951,"max":[950],"min":[0],"type":"SCALAR"}],"materials":[{"pbrMetallicRoughness":{"metallicFactor":0,"roughnessFactor":1}}],"meshes":[{"primitives":[{"mode":4,"attributes":{"POSITION":0},"indices":1,"material":0}]}]}